# Blender v2.82 (sub 7) OBJ File: ''
# www.blender.org
o Cube
v 6.774323 0.228513 -7.083502
v 6.774323 0.028649 -7.083502
v 6.774323 0.228513 9.111337
v 6.774323 0.028649 9.111337
v -8.699098 0.228513 -7.083502
v -8.699098 0.028649 -7.083502
v -8.699098 0.228513 9.111337
v -1.000000 -1.000000 1.000000
vt 1.734809 0.133824
vt 0.910952 0.976773
vt 0.910952 0.133824
vt 0.087095 1.819722
vt 0.087095 0.976773
vt 0.087095 -1.552074
vt 0.910952 -0.709126
vt 0.087095 -0.709126
vt 0.087095 0.133824
vt -0.736762 0.987169
vt -0.736762 0.133824
vt 1.734809 0.976773
vt 0.910952 1.819722
vt 0.910952 -1.552074
vn 0.0000 1.0000 0.0000
vn -0.7219 0.0000 0.6919
vn -0.7241 0.0000 0.6897
vn 0.0000 -0.9920 -0.1262
vn 1.0000 0.0000 0.0000
vn 0.0000 0.0000 -1.0000
vn 0.0000 -0.9887 0.1497
vn -0.1576 -0.9875 0.0000
vn 0.1312 -0.9914 0.0000
s off
f 5/1/1 3/2/1 1/3/1
f 3/2/2 8/4/2 4/5/2
f 8/6/3 5/7/3 6/8/3
f 2/9/4 8/10/4 6/11/4
f 1/3/5 4/5/5 2/9/5
f 5/7/6 2/9/6 6/8/6
f 5/1/1 7/12/1 3/2/1
f 3/2/7 7/13/7 8/4/7
f 8/6/8 7/14/8 5/7/8
f 2/9/9 4/5/9 8/10/9
f 1/3/5 3/2/5 4/5/5
f 5/7/6 1/3/6 2/9/6
